<?xml version="1.0" encoding="UTF-8"?>
<svg width="16px" height="16px" viewBox="0 0 16 16" version="1.1" xmlns="http://www.w3.org/2000/svg" xmlns:xlink="http://www.w3.org/1999/xlink">
    <!-- Generator: Sketch 50.2 (55047) - http://www.bohemiancoding.com/sketch -->
    <title>icon</title>
    <desc>Created with Sketch.</desc>
    <defs>
        <path d="M23.0086634,5.77375 C22.9053301,5.77375 22.8019967,5.74791667 22.7115801,5.69625 C20.2315801,4.4175 18.0874134,3.875 15.5169967,3.875 C12.9594967,3.875 10.5311634,4.48208333 8.32241341,5.69625 C8.01241341,5.86416667 7.62491341,5.74791667 7.44408008,5.43791667 C7.27616341,5.12791667 7.39241341,4.7275 7.70241341,4.55958333 C10.1049134,3.255 12.7399134,2.58333333 15.5169967,2.58333333 C18.2682467,2.58333333 20.6707467,3.19041667 23.3057467,4.54666667 C23.6286634,4.71458333 23.7449134,5.10208333 23.5769967,5.41208333 C23.4607467,5.64458333 23.2411634,5.77375 23.0086634,5.77375 Z M4.52491341,12.555 C4.39574675,12.555 4.26658008,12.51625 4.15033008,12.43875 C3.85324675,12.2320833 3.78866341,11.8316667 3.99533008,11.5345833 C5.27408008,9.72625 6.90158008,8.30541667 8.83908008,7.31083333 C12.8949134,5.21833333 18.0874134,5.20541667 22.1561634,7.29791667 C24.0936634,8.2925 25.7211634,9.70041667 26.9999134,11.4958333 C27.2065801,11.78 27.1419967,12.1933333 26.8449134,12.4 C26.5478301,12.6066667 26.1474134,12.5420833 25.9407467,12.245 C24.7782467,10.6175 23.3057467,9.33875 21.5619967,8.4475 C17.8549134,6.54875 13.1144967,6.54875 9.42033008,8.46041667 C7.66366341,9.36458333 6.19116341,10.65625 5.02866341,12.28375 C4.92533008,12.4645833 4.73158008,12.555 4.52491341,12.555 Z M12.5978301,28.1454167 C12.4299134,28.1454167 12.2619967,28.0808333 12.1457467,27.9516667 C11.0219967,26.8279167 10.4149134,26.1045833 9.54949675,24.5416667 C8.65824675,22.9529167 8.19324675,21.0154167 8.19324675,18.9358333 C8.19324675,15.0995833 11.4740801,11.97375 15.5040801,11.97375 C19.5340801,11.97375 22.8149134,15.0995833 22.8149134,18.9358333 C22.8149134,19.2975 22.5307467,19.5816667 22.1690801,19.5816667 C21.8074134,19.5816667 21.5232467,19.2975 21.5232467,18.9358333 C21.5232467,15.81 18.8236634,13.2654167 15.5040801,13.2654167 C12.1844967,13.2654167 9.48491341,15.81 9.48491341,18.9358333 C9.48491341,20.7958333 9.89824675,22.51375 10.6861634,23.90875 C11.5128301,25.3941667 12.0811634,26.0270833 13.0757467,27.0345833 C13.3211634,27.2929167 13.3211634,27.6933333 13.0757467,27.9516667 C12.9336634,28.0808333 12.7657467,28.1454167 12.5978301,28.1454167 Z M21.8590801,25.7558333 C20.3219967,25.7558333 18.9657467,25.3683333 17.8549134,24.60625 C15.9303301,23.3016667 14.7807467,21.1833333 14.7807467,18.9358333 C14.7807467,18.5741667 15.0649134,18.29 15.4265801,18.29 C15.7882467,18.29 16.0724134,18.5741667 16.0724134,18.9358333 C16.0724134,20.7570833 17.0024134,22.475 18.5782467,23.5341667 C19.4953301,24.1541667 20.5674134,24.45125 21.8590801,24.45125 C22.1690801,24.45125 22.6857467,24.4125 23.2024134,24.3220833 C23.5511634,24.2575 23.8869967,24.49 23.9515801,24.8516667 C24.0161634,25.2004167 23.7836634,25.53625 23.4219967,25.6008333 C22.6857467,25.7429167 22.0399134,25.7558333 21.8590801,25.7558333 Z M19.2628301,28.4166667 C19.2111634,28.4166667 19.1465801,28.40375 19.0949134,28.3908333 C17.0411634,27.8225 15.6978301,27.0604167 14.2899134,25.6783333 C12.4815801,23.8829167 11.4869967,21.4933333 11.4869967,18.9358333 C11.4869967,16.8433333 13.2694967,15.1383333 15.4653301,15.1383333 C17.6611634,15.1383333 19.4436634,16.8433333 19.4436634,18.9358333 C19.4436634,20.3179167 20.6449134,21.4416667 22.1303301,21.4416667 C23.6157467,21.4416667 24.8169967,20.3179167 24.8169967,18.9358333 C24.8169967,14.06625 20.6190801,10.11375 15.4524134,10.11375 C11.7840801,10.11375 8.42574675,12.1545833 6.91449675,15.3191667 C6.41074675,16.3654167 6.15241341,17.5925 6.15241341,18.9358333 C6.15241341,19.9433333 6.24283008,21.5320833 7.01783008,23.59875 C7.14699675,23.9345833 6.97908008,24.3091667 6.64324675,24.4254167 C6.30741341,24.5545833 5.93283008,24.37375 5.81658008,24.0508333 C5.18366341,22.35875 4.87366341,20.6795833 4.87366341,18.9358333 C4.87366341,17.3858333 5.17074675,15.9779167 5.75199675,14.7508333 C7.46991341,11.1470833 11.2803301,8.80916667 15.4524134,8.80916667 C21.3294967,8.80916667 26.1086634,13.3429167 26.1086634,18.9229167 C26.1086634,21.0154167 24.3261634,22.7204167 22.1303301,22.7204167 C19.9344967,22.7204167 18.1519967,21.0154167 18.1519967,18.9229167 C18.1519967,17.5408333 16.9507467,16.4170833 15.4653301,16.4170833 C13.9799134,16.4170833 12.7786634,17.5408333 12.7786634,18.9229167 C12.7786634,21.1316667 13.6311634,23.1983333 15.1940801,24.7483333 C16.4211634,25.9625 17.5965801,26.6341667 19.4178301,27.1379167 C19.7665801,27.2283333 19.9603301,27.59 19.8699134,27.9258333 C19.8053301,28.2229167 19.5340801,28.4166667 19.2628301,28.4166667 Z" id="path-1"></path>
    </defs>
    <g id="icon" stroke="none" stroke-width="1" fill="none" fill-rule="evenodd">
        <g id="Group" transform="translate(-7.660232, -7.660232)">
            <rect id="Rectangle-2" stroke="#6200EE" fill="#6200EE" x="7.93992185" y="7.93992185" width="15.2865516" height="15.2865516"></rect>
            <g id="Icon-/-Fingerprint-/-Filled">
                <mask id="mask-2" fill="white">
                    <use xlink:href="#path-1"></use>
                </mask>
                <g id="Mask" fill-rule="nonzero"></g>
                <g id="✱-/-Color-/-Icons-/-Selected-/-On-Primary-/-Active-" mask="url(#mask-2)" fill="#FFFFFF" fill-rule="evenodd">
                    <rect id="Rectangle-3" x="0" y="0" width="31" height="31"></rect>
                </g>
            </g>
            <rect id="Rectangle-3" fill="#FFFFFF" x="21.6320417" y="5.75187235" width="5.09540866" height="2.68837512"></rect>
            <rect id="Rectangle-3" fill="#FFFFFF" x="4.06382286" y="5.75187235" width="5.09540866" height="2.68837512"></rect>
        </g>
    </g>
</svg>